# xmcd CD database file
#
# Track frame offsets:
#	150
#	24187
#	46058
#	91882
#	123163
#	164184
#
# Disc length: 2568 seconds
#
# Revision: 0
# Processed by: cddbd v1.5.1PL2 Copyright (c) Steve Scherf et al.
# Submitted via: CDex 1.51
#
DISCID=3f0a0606
DTITLE=Freddie Hubbard - Hub Cap
DYEAR=1961
DGENRE=Jazz
TTITLE0=Hub Cap
TTITLE1=Cry Me Not
TTITLE2=Luana
TTITLE3=Osie Mae
TTITLE4=Plexus
TTITLE5=Earmon Jr.
EXTD=YEAR: 1961
EXTT0=
EXTT1=
EXTT2=
EXTT3=
EXTT4=
EXTT5=
PLAYORDER=
